<svg version="1.1" viewBox="0.0 0.0 288.0 288.0" fill="none" stroke="none" stroke-linecap="square" stroke-miterlimit="10" xmlns:xlink="http://www.w3.org/1999/xlink" xmlns="http://www.w3.org/2000/svg"><clipPath id="p.0"><path d="m0 0l288.0 0l0 288.0l-288.0 0l0 -288.0z" clip-rule="nonzero"/></clipPath><g clip-path="url(#p.0)"><path fill="#efefef" d="m0 0l288.0 0l0 288.0l-288.0 0z" fill-rule="evenodd"/><path fill="#434343" d="m8.498688 20.299213l244.0 0l0 34.047245l-244.0 0z" fill-rule="evenodd"/><path stroke="#434343" stroke-width="12.0" stroke-linejoin="round" stroke-linecap="butt" d="m8.498688 20.299213l244.0 0l0 34.047245l-244.0 0z" fill-rule="evenodd"/><path fill="#434343" d="m8.498688 127.60733l178.31711 0l0 34.037064l-178.31711 0z" fill-rule="evenodd"/><path stroke="#434343" stroke-width="12.0" stroke-linejoin="round" stroke-linecap="butt" d="m8.498688 127.60733l178.31711 0l0 34.037064l-178.31711 0z" fill-rule="evenodd"/><path fill="#434343" d="m8.498688 234.91602l101.00787 0l0 34.04724l-101.00787 0z" fill-rule="evenodd"/><path stroke="#434343" stroke-width="12.0" stroke-linejoin="round" stroke-linecap="butt" d="m8.498688 234.91602l101.00787 0l0 34.04724l-101.00787 0z" fill-rule="evenodd"/><path fill="#1155cc" d="m111.02298 191.23793l20.944443 14.750534l120.41058 -185.73921l28.189865 19.853271l-120.41058 185.73921l20.944443 14.750534l-69.33745 28.229294z" fill-rule="evenodd"/><path stroke="#1155cc" stroke-width="12.0" stroke-linejoin="round" stroke-linecap="butt" d="m111.02298 191.23793l20.944443 14.750534l120.41058 -185.73921l28.189865 19.853271l-120.41058 185.73921l20.944443 14.750534l-69.33745 28.229294z" fill-rule="evenodd"/></g></svg>